<svg width="20" height="20" viewBox="0 0 20 20" fill="none" xmlns="http://www.w3.org/2000/svg">
<g clip-path="url(#clip0_58_2185)">
<path d="M19.1511 15.1519C19.068 14.3991 18.6524 13.8136 17.9874 13.3954L14.995 11.6389C14.0807 11.1371 12.917 11.3044 12.1689 11.9735L11.8364 12.3081C10.2571 11.3044 8.67781 9.71518 7.68036 8.12599L8.01285 7.79142C8.76094 7.12229 8.92718 5.95131 8.42845 5.03125L6.68291 2.02016C6.35042 1.35103 5.68545 0.93282 4.93736 0.849178C4.27239 0.765537 3.5243 1.01646 3.02557 1.51831L2.02812 2.52201C0.864418 3.69299 0.531933 5.28218 1.11378 6.70408C1.94499 8.62784 3.35806 11.4716 5.93481 14.0645C8.51157 16.6574 11.3377 18.163 13.2495 18.9157C13.7482 19.083 14.2469 19.1667 14.6625 19.1667C15.66 19.1667 16.6575 18.7485 17.4055 17.9957L18.403 16.992C18.9849 16.5738 19.2342 15.821 19.1511 15.1519Z" fill="#161616"/>
<path fill-rule="evenodd" clip-rule="evenodd" d="M13.6372 6.36275C13.1727 5.89824 12.4531 5.7261 11.9302 5.9004C11.4936 6.04594 11.0216 5.80997 10.8761 5.37335C10.7305 4.93673 10.9665 4.4648 11.4031 4.31926C12.5868 3.9247 13.9529 4.32141 14.8158 5.18423C15.6786 6.04706 16.0753 7.41319 15.6807 8.59686C15.5352 9.03348 15.0633 9.26944 14.6266 9.1239C14.19 8.97836 13.9541 8.50643 14.0996 8.06981C14.2739 7.54692 14.1018 6.82725 13.6372 6.36275Z" fill="#161616"/>
<path fill-rule="evenodd" clip-rule="evenodd" d="M15.8118 4.18825C14.3221 2.69857 12.1568 2.17439 10.2167 2.69674C9.77225 2.81639 9.31498 2.55312 9.19533 2.1087C9.07568 1.66429 9.33896 1.20703 9.78337 1.08738C12.2812 0.414874 15.0661 1.08554 16.9903 3.00974C18.9145 4.93393 19.5851 7.71877 18.9126 10.2166C18.793 10.6611 18.3357 10.9243 17.8913 10.8047C17.4469 10.685 17.1836 10.2278 17.3033 9.78336C17.8256 7.8432 17.3014 5.67793 15.8118 4.18825Z" fill="#161616"/>
</g>
<defs>
<clipPath id="clip0_58_2185">
<rect width="20" height="20" fill="white"/>
</clipPath>
</defs>
</svg>
